<mxfile host="65bd71144e">
    <diagram id="wb6lQr0xh8qGcGNdM_CW" name="Page-1">
        <mxGraphModel dx="896" dy="667" grid="0" gridSize="10" guides="1" tooltips="1" connect="1" arrows="1" fold="1" page="0" pageScale="1" pageWidth="850" pageHeight="1100" math="0" shadow="0">
            <root>
                <mxCell id="0"/>
                <mxCell id="1" parent="0"/>
                <mxCell id="23" value="Dies" style="swimlane;startSize=20;horizontal=1;containerType=tree;newEdgeStyle={&quot;edgeStyle&quot;:&quot;elbowEdgeStyle&quot;,&quot;startArrow&quot;:&quot;none&quot;,&quot;endArrow&quot;:&quot;none&quot;};rounded=0;shadow=0;glass=0;dashed=1;dashPattern=8 8;sketch=0;strokeColor=#F0F0F0;gradientColor=none;" vertex="1" parent="1">
                    <mxGeometry x="68" y="91" width="757" height="352" as="geometry"/>
                </mxCell>
                <mxCell id="24" value="" style="edgeStyle=elbowEdgeStyle;elbow=vertical;sourcePerimeterSpacing=0;targetPerimeterSpacing=0;startArrow=none;endArrow=none;rounded=0;curved=0;" edge="1" parent="23" source="26" target="27">
                    <mxGeometry relative="1" as="geometry"/>
                </mxCell>
                <mxCell id="25" value="" style="edgeStyle=elbowEdgeStyle;elbow=vertical;sourcePerimeterSpacing=0;targetPerimeterSpacing=0;startArrow=none;endArrow=none;rounded=0;curved=0;" edge="1" parent="23" source="26" target="28">
                    <mxGeometry relative="1" as="geometry"/>
                </mxCell>
                <UserObject label="Models and schemas" treeRoot="1" id="26">
                    <mxCell style="whiteSpace=wrap;html=1;align=center;treeFolding=1;treeMoving=1;newEdgeStyle={&quot;edgeStyle&quot;:&quot;elbowEdgeStyle&quot;,&quot;startArrow&quot;:&quot;none&quot;,&quot;endArrow&quot;:&quot;none&quot;};rounded=0;shadow=0;glass=0;dashed=1;dashPattern=8 8;sketch=0;strokeColor=#F0F0F0;gradientColor=none;" vertex="1" parent="23">
                        <mxGeometry x="315" y="36" width="120" height="60" as="geometry"/>
                    </mxCell>
                </UserObject>
                <mxCell id="27" value="Patients" style="whiteSpace=wrap;html=1;align=center;verticalAlign=middle;treeFolding=1;treeMoving=1;newEdgeStyle={&quot;edgeStyle&quot;:&quot;elbowEdgeStyle&quot;,&quot;startArrow&quot;:&quot;none&quot;,&quot;endArrow&quot;:&quot;none&quot;};rounded=0;shadow=0;glass=0;dashed=1;dashPattern=8 8;sketch=0;strokeColor=#F0F0F0;gradientColor=none;" vertex="1" parent="23">
                    <mxGeometry x="181" y="140" width="100" height="60" as="geometry"/>
                </mxCell>
                <mxCell id="28" value="Doctors" style="whiteSpace=wrap;html=1;align=center;verticalAlign=middle;treeFolding=1;treeMoving=1;newEdgeStyle={&quot;edgeStyle&quot;:&quot;elbowEdgeStyle&quot;,&quot;startArrow&quot;:&quot;none&quot;,&quot;endArrow&quot;:&quot;none&quot;};rounded=0;shadow=0;glass=0;dashed=1;dashPattern=8 8;sketch=0;strokeColor=#F0F0F0;gradientColor=none;" vertex="1" parent="23">
                    <mxGeometry x="492" y="140" width="100" height="60" as="geometry"/>
                </mxCell>
                <mxCell id="29" value="" style="edgeStyle=elbowEdgeStyle;elbow=vertical;sourcePerimeterSpacing=0;targetPerimeterSpacing=0;startArrow=none;endArrow=none;rounded=0;curved=0;" edge="1" target="30" source="26" parent="23">
                    <mxGeometry relative="1" as="geometry">
                        <mxPoint x="443" y="187" as="sourcePoint"/>
                    </mxGeometry>
                </mxCell>
                <mxCell id="30" value="Doctors" style="whiteSpace=wrap;html=1;align=center;verticalAlign=middle;treeFolding=1;treeMoving=1;newEdgeStyle={&quot;edgeStyle&quot;:&quot;elbowEdgeStyle&quot;,&quot;startArrow&quot;:&quot;none&quot;,&quot;endArrow&quot;:&quot;none&quot;};rounded=0;shadow=0;glass=0;dashed=1;dashPattern=8 8;sketch=0;strokeColor=#F0F0F0;gradientColor=none;" vertex="1" parent="23">
                    <mxGeometry x="325" y="137" width="100" height="60" as="geometry"/>
                </mxCell>
            </root>
        </mxGraphModel>
    </diagram>
</mxfile>